<?xml version="1.0" encoding="UTF-8"?><svg id="Layer_1" xmlns="http://www.w3.org/2000/svg" viewBox="0 0 72.24 72.24"><defs><style>.cls-1{fill:none;}.cls-1,.cls-2,.cls-3{stroke-width:0px;}.cls-2{fill:#000;}.cls-3{fill:#fff;}</style></defs><path class="cls-3" d="M9.69,2h52.87c4.24,0,7.69,3.44,7.69,7.69v52.87c0,4.24-3.44,7.69-7.69,7.69H9.69c-4.24,0-7.69-3.44-7.69-7.69V9.69c0-4.24,3.44-7.69,7.69-7.69Z"/><path class="cls-2" d="M62.55,4c3.14,0,5.69,2.55,5.69,5.69v52.87c0,3.14-2.55,5.69-5.69,5.69H9.69c-3.14,0-5.69-2.55-5.69-5.69V9.69c0-3.14,2.55-5.69,5.69-5.69h52.87M62.55,0H9.69C4.34,0,0,4.34,0,9.69v52.87C0,67.9,4.34,72.24,9.69,72.24h52.87c5.35,0,9.69-4.34,9.69-9.69V9.69C72.24,4.34,67.9,0,62.55,0h0Z"/><rect class="cls-1" x="0" y=".12" width="72.24" height="72.24"/><rect class="cls-1" width="72.24" height="72.24"/><rect class="cls-2" x="23.09" y="22.56" width="26.73" height="8.55"/><rect class="cls-2" x="27.48" y="27.8" width="17.94" height="10.17" rx="2.19" ry="2.19"/><rect class="cls-2" x="34.95" y="37.38" width="3.01" height="13.82"/><path class="cls-2" d="M15.96,9.35h3.94c.78,0,1.41.11,1.88.32s.87.51,1.19.91.54.85.68,1.38.21,1.08.21,1.66c0,.92-.1,1.63-.31,2.14s-.5.93-.87,1.27-.77.57-1.2.68c-.58.16-1.11.23-1.58.23h-3.94v-8.59ZM18.61,11.3v4.69h.65c.55,0,.95-.06,1.18-.18s.42-.34.55-.64.2-.8.2-1.49c0-.91-.15-1.53-.45-1.87s-.79-.5-1.48-.5h-.66Z"/><path class="cls-2" d="M25.29,17.94v-8.59h4.42c.82,0,1.45.07,1.88.21s.78.4,1.05.78.4.84.4,1.39c0,.48-.1.89-.3,1.23s-.48.63-.84.84c-.23.14-.54.25-.93.34.32.11.55.21.69.32.1.07.24.22.42.45.19.23.31.41.37.53l1.29,2.49h-3l-1.42-2.62c-.18-.34-.34-.56-.48-.66-.19-.13-.41-.2-.65-.2h-.23v3.49h-2.67ZM27.96,12.83h1.12c.12,0,.36-.04.7-.12.18-.04.32-.12.43-.27s.17-.31.17-.5c0-.28-.09-.49-.26-.64s-.51-.22-.99-.22h-1.17v1.75Z"/><path class="cls-2" d="M39.87,16.52h-3.01l-.42,1.42h-2.71l3.23-8.59h2.9l3.23,8.59h-2.78l-.43-1.42ZM39.32,14.67l-.95-3.09-.94,3.09h1.89Z"/><path class="cls-2" d="M43.13,9.35h2.52l.91,4.81,1.33-4.81h2.51l1.33,4.8.91-4.8h2.51l-1.89,8.59h-2.6l-1.51-5.41-1.5,5.41h-2.6l-1.91-8.59Z"/><path class="cls-2" d="M23.97,55.39h4.97c.83,0,1.46.21,1.91.62s.67.92.67,1.52c0,.51-.16.94-.47,1.31-.21.24-.52.43-.93.57.62.15,1.07.4,1.36.76s.44.82.44,1.36c0,.45-.1.85-.31,1.2s-.49.64-.85.84c-.22.13-.56.22-1.01.28-.6.08-.99.12-1.19.12h-4.58v-8.59ZM26.65,58.76h1.15c.41,0,.7-.07.86-.21s.24-.35.24-.62c0-.25-.08-.45-.24-.59s-.44-.21-.85-.21h-1.17v1.63ZM26.65,62.13h1.35c.46,0,.78-.08.97-.24s.28-.38.28-.65c0-.25-.09-.46-.28-.61s-.51-.23-.98-.23h-1.35v1.74Z"/><path class="cls-2" d="M38.38,62.56h-3.01l-.42,1.42h-2.71l3.23-8.59h2.9l3.23,8.59h-2.78l-.43-1.42ZM37.82,60.7l-.95-3.09-.94,3.09h1.89Z"/><path class="cls-2" d="M42.46,63.98v-8.59h4.42c.82,0,1.45.07,1.88.21s.78.4,1.05.78.4.84.4,1.39c0,.48-.1.89-.3,1.23s-.48.63-.84.84c-.23.14-.54.25-.93.34.32.11.55.21.69.32.1.07.24.22.42.45.19.23.31.41.37.53l1.29,2.49h-3l-1.42-2.62c-.18-.34-.34-.56-.48-.66-.19-.13-.41-.2-.65-.2h-.23v3.49h-2.67ZM45.13,58.87h1.12c.12,0,.36-.04.7-.12.18-.04.32-.12.43-.27s.17-.31.17-.5c0-.28-.09-.49-.26-.64s-.51-.22-.99-.22h-1.17v1.75Z"/></svg>